<svg xmlns="http://www.w3.org/2000/svg" viewBox="0 0 800 800">
	<defs>
		<linearGradient id="g" gradientUnits="userSpaceOnUse" x1="400" y1="800" x2="400" y2="0">
			<stop offset="0" stop-color="#FF8147"/>
			<stop offset="0.4158" stop-color="#F01D60"/>
			<stop offset="1" stop-color="#811268"/>
		</linearGradient>
		<mask id="cutout">
			<circle cx="400" cy="400" r="400" fill="white"/>
			<g transform="translate(400 400) scale(0.82) translate(-447 -480)">
				<path fill="black" d="M439.1,437.5c-0.1,0-0.2,0-0.3,0c0,64.9,0.2,129.7,0,194.6c-0.2,73-35.4,113.2-107.7,121.2 c-26.8,3-54,3.1-80.9-2.1c-58.9-11.3-90.5-45.5-93.7-104.9c-1.7-32-0.2-64.1-0.7-96.2c-0.2-13.7,6-19.2,19.4-19 c27.1,0.3,54.2,0.5,81.3-0.1c14.7-0.3,20.3,6.2,20.1,20.6c-0.5,27.8-0.7,55.6,0.2,83.4c0.5,15.3,0.1,35.9,21.2,35.5 c21.1-0.4,20.1-20.8,20.1-36.3c0.2-132.6-0.1-265.2-0.1-397.8c0-29.7,0.4-30,29.6-30.1c22.8-0.1,45.6,0.7,68.4-0.2 c17.6-0.7,23.7,6.3,23.6,23.9C438.7,299.2,439.1,368.3,439.1,437.5z M738.7,226.4c-1.3,73.1,9.4,60.6-57.9,61.7 c-50.6,0.8-44.2-5.2-44.7,44.4c-0.2,18.5,0.5,37.1-0.2,55.5c-0.5,14,5.7,18,19.2,18.6c20.6,0.8,39.9,0.3,59.8-0.2 c13.7-0.3,19.2,5.7,19.1,19.2c-0.6,72.3,7.7,58.5-55.4,59.7c-47.5,0.9-42.5-5.2-42.7,42c-0.3,64.1-0.8,128.2,0,192.3 c0.3,19.5-6.3,25.9-25.8,26c-20.9,0.1-41.3-0.2-62-0.3c-31.8-0.1-32.7-0.9-32.7-32.1c-0.2-121.8-0.2-243.6-0.3-365.4 c0-39.2,0.4-78.4-0.2-117.5c-0.3-17.2,6-24.7,23.7-24.3c29.9,0.7,59.8,0.2,89.7,0.2c29.9,0,59.8,0.3,89.7-0.1 C732.3,206.1,738.9,211.5,738.7,226.4z"/>
			</g>
		</mask>
	</defs>
	<circle cx="400" cy="400" r="400" fill="url(#g)" mask="url(#cutout)"/>
</svg>
