<svg xmlns="http://www.w3.org/2000/svg" width="256" height="256" viewBox="0 0 100 100"><path d="M22.39 98.21L22.39 98.21Q16.95 98.21 13.82 97.06Q10.70 95.90 9.40 94.06Q8.11 92.23 8.11 90.19L8.11 90.19Q8.11 88.01 8.72 86.45Q9.34 84.88 9.74 83.93L9.74 83.93Q11.65 85.56 14.64 86.99Q17.63 88.42 21.03 88.42L21.03 88.42Q24.98 88.42 26.88 86.52Q28.78 84.61 29.33 81.01Q29.87 77.40 29.87 72.10L29.87 72.10L29.87 6.82Q29.87 4.24 30.35 3.22Q30.82 2.20 33.14 1.99Q35.45 1.79 41.02 1.79L41.02 1.79L41.02 74.55Q41.02 79.58 40.21 83.93Q39.39 88.28 37.35 91.48Q35.31 94.68 31.71 96.44Q28.10 98.21 22.39 98.21ZM65.91 96.99L56.94 96.99L56.94 3.96Q56.94 3.96 57.28 2.88Q57.62 1.79 59.25 1.79L59.25 1.79L91.89 1.79Q91.89 6.28 91.75 8.25Q91.62 10.22 91.21 10.76Q90.80 11.31 89.85 11.31L89.85 11.31L67.95 11.31L67.95 94.81Q67.95 94.81 67.82 95.90Q67.68 96.99 65.91 96.99L65.91 96.99ZM86.45 50.20L58.43 50.20L58.43 40.14L88.49 40.14Q88.49 46.40 88.22 48.30Q87.94 50.20 86.45 50.20L86.45 50.20Z" fill="#ff0000"></path></svg>